<mxfile host="app.diagrams.net" agent="Mozilla/5.0 (Windows NT 10.0; Win64; x64) AppleWebKit/537.36 (KHTML, like Gecko) Chrome/134.0.0.0 Safari/537.36" locked="true" version="26.1.0">
  <diagram name="Page-1" id="XmCrQEaFtK6fEU7ywPws">
    <mxGraphModel dx="954" dy="558" grid="1" gridSize="10" guides="1" tooltips="1" connect="1" arrows="1" fold="1" page="1" pageScale="1" pageWidth="850" pageHeight="1100" math="0" shadow="0">
      <root>
        <mxCell id="0" />
        <mxCell id="1" parent="0" />
        <mxCell id="x6fvd4ECCn_461Zpsc45-1" value="" style="endArrow=classic;html=1;rounded=0;exitX=1.006;exitY=0.597;exitDx=0;exitDy=0;exitPerimeter=0;" edge="1" parent="1" source="x6fvd4ECCn_461Zpsc45-11">
          <mxGeometry width="50" height="50" relative="1" as="geometry">
            <mxPoint x="83.5" y="120" as="sourcePoint" />
            <mxPoint x="153.5" y="120" as="targetPoint" />
          </mxGeometry>
        </mxCell>
        <mxCell id="x6fvd4ECCn_461Zpsc45-2" style="edgeStyle=orthogonalEdgeStyle;rounded=0;orthogonalLoop=1;jettySize=auto;html=1;exitX=1.2;exitY=0.104;exitDx=0;exitDy=0;entryX=0.55;entryY=0.1;entryDx=0;entryDy=0;entryPerimeter=0;exitPerimeter=0;" edge="1" parent="1" source="x6fvd4ECCn_461Zpsc45-3" target="x6fvd4ECCn_461Zpsc45-9">
          <mxGeometry relative="1" as="geometry" />
        </mxCell>
        <mxCell id="x6fvd4ECCn_461Zpsc45-3" value="" style="rounded=0;whiteSpace=wrap;html=1;fillColor=#e1d5e7;strokeColor=#9673a6;" vertex="1" parent="1">
          <mxGeometry x="153.5" y="70" width="20" height="480" as="geometry" />
        </mxCell>
        <mxCell id="x6fvd4ECCn_461Zpsc45-4" style="edgeStyle=orthogonalEdgeStyle;rounded=0;orthogonalLoop=1;jettySize=auto;html=1;exitX=0;exitY=0.25;exitDx=0;exitDy=0;entryX=1;entryY=0.25;entryDx=0;entryDy=0;" edge="1" parent="1" source="x6fvd4ECCn_461Zpsc45-5" target="x6fvd4ECCn_461Zpsc45-3">
          <mxGeometry relative="1" as="geometry" />
        </mxCell>
        <mxCell id="x6fvd4ECCn_461Zpsc45-5" value="" style="rounded=0;whiteSpace=wrap;html=1;fillColor=#d5e8d4;strokeColor=#82b366;" vertex="1" parent="1">
          <mxGeometry x="273.5" y="70" width="20" height="480" as="geometry" />
        </mxCell>
        <mxCell id="x6fvd4ECCn_461Zpsc45-6" style="edgeStyle=orthogonalEdgeStyle;rounded=0;orthogonalLoop=1;jettySize=auto;html=1;" edge="1" parent="1">
          <mxGeometry relative="1" as="geometry">
            <mxPoint x="513.5" y="280" as="targetPoint" />
            <mxPoint x="413.5" y="280" as="sourcePoint" />
          </mxGeometry>
        </mxCell>
        <mxCell id="x6fvd4ECCn_461Zpsc45-7" value="" style="rounded=0;whiteSpace=wrap;html=1;fillColor=#dae8fc;strokeColor=#6c8ebf;" vertex="1" parent="1">
          <mxGeometry x="393.5" y="70" width="20" height="480" as="geometry" />
        </mxCell>
        <mxCell id="x6fvd4ECCn_461Zpsc45-8" value="&lt;b&gt;GATEWAY&lt;/b&gt;" style="text;html=1;align=center;verticalAlign=middle;resizable=0;points=[];autosize=1;strokeColor=none;fillColor=none;rotation=-90;" vertex="1" parent="1">
          <mxGeometry x="123.5" y="100" width="80" height="30" as="geometry" />
        </mxCell>
        <mxCell id="x6fvd4ECCn_461Zpsc45-9" value="&lt;b&gt;CONTAINER-UI&lt;/b&gt;" style="text;html=1;align=center;verticalAlign=middle;resizable=0;points=[];autosize=1;strokeColor=none;fillColor=none;rotation=-90;" vertex="1" parent="1">
          <mxGeometry x="228.5" y="110" width="110" height="30" as="geometry" />
        </mxCell>
        <mxCell id="x6fvd4ECCn_461Zpsc45-10" value="&lt;b&gt;PLATFORM-SERVICE&lt;/b&gt;" style="text;html=1;align=center;verticalAlign=middle;resizable=0;points=[];autosize=1;strokeColor=none;fillColor=none;rotation=-90;" vertex="1" parent="1">
          <mxGeometry x="328.5" y="127" width="150" height="30" as="geometry" />
        </mxCell>
        <mxCell id="x6fvd4ECCn_461Zpsc45-11" value="" style="points=[[0.35,0,0],[0.98,0.51,0],[1,0.71,0],[0.67,1,0],[0,0.795,0],[0,0.65,0]];verticalLabelPosition=bottom;sketch=0;html=1;verticalAlign=top;aspect=fixed;align=center;pointerEvents=1;shape=mxgraph.cisco19.user;fillColor=#005073;strokeColor=none;" vertex="1" parent="1">
          <mxGeometry x="13.5" y="90" width="50" height="50" as="geometry" />
        </mxCell>
        <mxCell id="x6fvd4ECCn_461Zpsc45-12" value="authentication&lt;div&gt;check&lt;/div&gt;" style="text;html=1;align=center;verticalAlign=middle;resizable=0;points=[];autosize=1;strokeColor=none;fillColor=none;" vertex="1" parent="1">
          <mxGeometry x="178.5" y="146" width="100" height="40" as="geometry" />
        </mxCell>
        <mxCell id="x6fvd4ECCn_461Zpsc45-13" value="" style="endArrow=classic;html=1;rounded=0;entryX=0.015;entryY=0.839;entryDx=0;entryDy=0;entryPerimeter=0;" edge="1" parent="1" target="x6fvd4ECCn_461Zpsc45-20">
          <mxGeometry width="50" height="50" relative="1" as="geometry">
            <mxPoint x="223.5" y="190" as="sourcePoint" />
            <mxPoint x="223.5" y="270" as="targetPoint" />
          </mxGeometry>
        </mxCell>
        <mxCell id="x6fvd4ECCn_461Zpsc45-14" value="Yes" style="text;html=1;align=center;verticalAlign=middle;resizable=0;points=[];autosize=1;strokeColor=none;fillColor=none;" vertex="1" parent="1">
          <mxGeometry x="181.5" y="186" width="40" height="30" as="geometry" />
        </mxCell>
        <mxCell id="x6fvd4ECCn_461Zpsc45-15" value="No" style="text;html=1;align=center;verticalAlign=middle;resizable=0;points=[];autosize=1;strokeColor=none;fillColor=none;" vertex="1" parent="1">
          <mxGeometry x="188.5" y="243" width="40" height="30" as="geometry" />
        </mxCell>
        <mxCell id="x6fvd4ECCn_461Zpsc45-16" style="edgeStyle=orthogonalEdgeStyle;rounded=0;orthogonalLoop=1;jettySize=auto;html=1;exitX=0;exitY=0.5;exitDx=0;exitDy=0;" edge="1" parent="1">
          <mxGeometry relative="1" as="geometry">
            <mxPoint x="33.5" y="350" as="targetPoint" />
            <mxPoint x="514.5" y="350" as="sourcePoint" />
          </mxGeometry>
        </mxCell>
        <mxCell id="x6fvd4ECCn_461Zpsc45-17" value="" style="rounded=0;whiteSpace=wrap;html=1;fillColor=#e3c800;fontColor=#000000;strokeColor=#B09500;" vertex="1" parent="1">
          <mxGeometry x="513.5" y="70" width="20" height="480" as="geometry" />
        </mxCell>
        <mxCell id="x6fvd4ECCn_461Zpsc45-18" value="Login Page" style="text;html=1;align=center;verticalAlign=middle;resizable=0;points=[];autosize=1;strokeColor=none;fillColor=none;" vertex="1" parent="1">
          <mxGeometry x="303.5" y="327" width="80" height="30" as="geometry" />
        </mxCell>
        <mxCell id="x6fvd4ECCn_461Zpsc45-19" value="" style="endArrow=classic;html=1;rounded=0;entryX=0.03;entryY=0.438;entryDx=0;entryDy=0;entryPerimeter=0;exitX=0.976;exitY=0.438;exitDx=0;exitDy=0;exitPerimeter=0;" edge="1" parent="1">
          <mxGeometry width="50" height="50" relative="1" as="geometry">
            <mxPoint x="172.95999999999998" y="280.23999999999995" as="sourcePoint" />
            <mxPoint x="394.04" y="280.23999999999995" as="targetPoint" />
          </mxGeometry>
        </mxCell>
        <mxCell id="x6fvd4ECCn_461Zpsc45-20" value="&lt;font style=&quot;font-size: 10px;&quot;&gt;Redirects to Platform Service&lt;/font&gt;" style="text;html=1;align=center;verticalAlign=middle;resizable=0;points=[];autosize=1;strokeColor=none;fillColor=none;" vertex="1" parent="1">
          <mxGeometry x="220.5" y="255" width="150" height="30" as="geometry" />
        </mxCell>
        <mxCell id="x6fvd4ECCn_461Zpsc45-21" value="&lt;b&gt;OAUTH-SERVER&lt;/b&gt;" style="text;html=1;align=center;verticalAlign=middle;resizable=0;points=[];autosize=1;strokeColor=none;fillColor=none;rotation=-90;" vertex="1" parent="1">
          <mxGeometry x="464.5" y="113" width="120" height="30" as="geometry" />
        </mxCell>
        <mxCell id="x6fvd4ECCn_461Zpsc45-22" value="&lt;font style=&quot;font-size: 10px;&quot;&gt;Redirects Auth server&lt;/font&gt;" style="text;html=1;align=center;verticalAlign=middle;resizable=0;points=[];autosize=1;strokeColor=none;fillColor=none;" vertex="1" parent="1">
          <mxGeometry x="402.5" y="254" width="120" height="30" as="geometry" />
        </mxCell>
        <mxCell id="x6fvd4ECCn_461Zpsc45-23" value="" style="endArrow=none;dashed=1;html=1;rounded=0;" edge="1" parent="1">
          <mxGeometry width="50" height="50" relative="1" as="geometry">
            <mxPoint x="32.5" y="550" as="sourcePoint" />
            <mxPoint x="32.5" y="130" as="targetPoint" />
          </mxGeometry>
        </mxCell>
        <mxCell id="x6fvd4ECCn_461Zpsc45-24" value="" style="endArrow=classic;html=1;rounded=0;" edge="1" parent="1">
          <mxGeometry width="50" height="50" relative="1" as="geometry">
            <mxPoint x="33.5" y="390" as="sourcePoint" />
            <mxPoint x="513.5" y="390" as="targetPoint" />
          </mxGeometry>
        </mxCell>
        <mxCell id="x6fvd4ECCn_461Zpsc45-25" value="Login Validation" style="text;html=1;align=center;verticalAlign=middle;resizable=0;points=[];autosize=1;strokeColor=none;fillColor=none;" vertex="1" parent="1">
          <mxGeometry x="50.5" y="363" width="110" height="30" as="geometry" />
        </mxCell>
        <mxCell id="x6fvd4ECCn_461Zpsc45-26" value="" style="endArrow=classic;html=1;rounded=0;entryX=1;entryY=0.75;entryDx=0;entryDy=0;" edge="1" parent="1" target="x6fvd4ECCn_461Zpsc45-3">
          <mxGeometry width="50" height="50" relative="1" as="geometry">
            <mxPoint x="514.5" y="430" as="sourcePoint" />
            <mxPoint x="564.5" y="380" as="targetPoint" />
          </mxGeometry>
        </mxCell>
        <mxCell id="x6fvd4ECCn_461Zpsc45-27" value="Redirects to Platform service with Access Token" style="text;html=1;align=center;verticalAlign=middle;resizable=0;points=[];autosize=1;strokeColor=none;fillColor=none;" vertex="1" parent="1">
          <mxGeometry x="199.5" y="404" width="280" height="30" as="geometry" />
        </mxCell>
        <mxCell id="x6fvd4ECCn_461Zpsc45-28" value="" style="endArrow=classic;html=1;rounded=0;" edge="1" parent="1">
          <mxGeometry width="50" height="50" relative="1" as="geometry">
            <mxPoint x="173.5" y="440" as="sourcePoint" />
            <mxPoint x="393.5" y="440" as="targetPoint" />
          </mxGeometry>
        </mxCell>
        <mxCell id="x6fvd4ECCn_461Zpsc45-29" value="" style="endArrow=classic;html=1;rounded=0;entryX=1;entryY=0.75;entryDx=0;entryDy=0;exitX=0.05;exitY=0.832;exitDx=0;exitDy=0;exitPerimeter=0;" edge="1" parent="1" source="x6fvd4ECCn_461Zpsc45-7">
          <mxGeometry width="50" height="50" relative="1" as="geometry">
            <mxPoint x="513.5" y="469" as="sourcePoint" />
            <mxPoint x="172.5" y="469" as="targetPoint" />
          </mxGeometry>
        </mxCell>
        <mxCell id="x6fvd4ECCn_461Zpsc45-30" value="" style="endArrow=classic;html=1;rounded=0;" edge="1" parent="1">
          <mxGeometry width="50" height="50" relative="1" as="geometry">
            <mxPoint x="173.5" y="480" as="sourcePoint" />
            <mxPoint x="273.5" y="480" as="targetPoint" />
          </mxGeometry>
        </mxCell>
        <mxCell id="x6fvd4ECCn_461Zpsc45-31" value="&lt;font style=&quot;font-size: 8px;&quot;&gt;&lt;b&gt;http://domain/container-app&lt;/b&gt;&lt;/font&gt;" style="text;html=1;align=center;verticalAlign=middle;resizable=0;points=[];autosize=1;strokeColor=none;fillColor=none;" vertex="1" parent="1">
          <mxGeometry x="34.5" y="92" width="130" height="30" as="geometry" />
        </mxCell>
        <mxCell id="x6fvd4ECCn_461Zpsc45-32" value="&lt;font style=&quot;font-size: 8px;&quot;&gt;Gateway captures access token&amp;nbsp;&lt;/font&gt;&lt;div&gt;&lt;font style=&quot;font-size: 8px;&quot;&gt;and stores as &lt;b&gt;httpOnly &lt;/b&gt;cookie&lt;/font&gt;&lt;/div&gt;" style="text;html=1;align=center;verticalAlign=middle;resizable=0;points=[];autosize=1;strokeColor=none;fillColor=none;" vertex="1" parent="1">
          <mxGeometry x="162.5" y="474" width="140" height="40" as="geometry" />
        </mxCell>
      </root>
    </mxGraphModel>
  </diagram>
</mxfile>
